<?xml version="1.0" encoding="UTF-8" standalone="no"?>
<svg
   width="599"
   height="385"
   xml:space="preserve"
   overflow="hidden"
   version="1.1"
   id="svg7"
   sodipodi:docname="specular power high.svg"
   inkscape:version="1.3 (0e150ed6c4, 2023-07-21)"
   xmlns:inkscape="http://www.inkscape.org/namespaces/inkscape"
   xmlns:sodipodi="http://sodipodi.sourceforge.net/DTD/sodipodi-0.dtd"
   xmlns="http://www.w3.org/2000/svg"
   xmlns:svg="http://www.w3.org/2000/svg"><defs
     id="defs7" /><sodipodi:namedview
     id="namedview7"
     pagecolor="#ffffff"
     bordercolor="#000000"
     borderopacity="0.25"
     inkscape:showpageshadow="2"
     inkscape:pageopacity="0.0"
     inkscape:pagecheckerboard="0"
     inkscape:deskcolor="#d1d1d1"
     inkscape:zoom="2.1324675"
     inkscape:cx="299.65286"
     inkscape:cy="192.5"
     inkscape:window-width="1920"
     inkscape:window-height="1017"
     inkscape:window-x="-8"
     inkscape:window-y="32"
     inkscape:window-maximized="1"
     inkscape:current-layer="svg7" /><g
     transform="translate(-791 -658)"
     id="g7"><path
       d="m 803.27344,1016.8541 578.42216,-0.01"
       stroke="#000000"
       stroke-width="6.875"
       stroke-miterlimit="8"
       fill="none"
       fill-rule="evenodd"
       id="path1"
       inkscape:label="path1" /><path
       d="M1.73976-1.49164 255.195 294.124 251.716 297.107-1.73976 1.49164ZM260.911 283.186 268.372 313.013 240.034 301.086Z"
       fill="#4472C4"
       transform="matrix(-1 0 0 1 1363.87 701.5)"
       id="path2" /><path
       d="M1.7375-1.49426 256.973 295.289 253.498 298.278-1.7375 1.49426ZM262.672 284.343 270.178 314.159 241.822 302.274Z"
       fill="#4472C4"
       transform="matrix(-1 0 0 1 1328.68 700.5)"
       id="path3" /><path
       d="M1.72732-1.50603 262.576 297.671 259.121 300.683-1.72732 1.50603ZM268.201 286.686 275.909 316.45 247.473 304.759Z"
       fill="#4472C4"
       transform="matrix(-1 0 0 1 1296.41 698.5)"
       id="path4" /><path
       d="M1093.75 1015.67 891.157 706.917 894.989 704.403 1097.59 1013.15ZM884.091 717.035 880.5 686.5 907.083 701.948Z"
       fill="#ED7D31"
       id="path5" /><path
       d="M1060.39 1015.8 861.444 721.764 865.24 719.196 1064.19 1013.23ZM854.523 731.982 850.5 701.5 877.299 716.571Z"
       fill="#ED7D31"
       id="path6" /><path
       d="M1018.36 1016.47 830.509 740.729 834.297 738.149 1022.15 1013.89ZM823.62 750.969 819.5 720.5 846.347 735.485Z"
       fill="#ED7D31"
       id="path7" /></g></svg>
