<svg width="610" height="387" xmlns="http://www.w3.org/2000/svg" xmlns:xlink="http://www.w3.org/1999/xlink" xml:space="preserve" overflow="hidden"><g transform="translate(-1565 -658)"><path d="M1596.5 1020.5 2171.4 1020.5" stroke="#000000" stroke-width="6.875" stroke-miterlimit="8" fill="none" fill-rule="evenodd"/><path d="M1.73976-1.49164 255.195 294.124 251.716 297.107-1.73976 1.49164ZM260.911 283.186 268.372 313.013 240.034 301.086Z" fill="#4472C4" transform="matrix(-1 0 0 1 2153.87 703.5)"/><path d="M1.7375-1.49426 256.973 295.289 253.498 298.278-1.7375 1.49426ZM262.672 284.343 270.178 314.159 241.822 302.274Z" fill="#4472C4" transform="matrix(-1 0 0 1 2118.68 702.5)"/><path d="M1.72732-1.50603 262.576 297.671 259.121 300.683-1.72732 1.50603ZM268.201 286.686 275.909 316.45 247.473 304.759Z" fill="#4472C4" transform="matrix(-1 0 0 1 2086.41 700.5)"/><path d="M1883.14 1017.2 1726.8 707.985 1730.89 705.917 1887.23 1015.13ZM1718.64 717.246 1718.5 686.5 1743.18 704.837Z" fill="#ED7D31"/><path d="M1849.39 1017.8 1650.44 723.764 1654.24 721.196 1853.19 1015.23ZM1643.52 733.982 1639.5 703.5 1666.3 718.571Z" fill="#ED7D31"/><path d="M1808.27 1017.7 1606.74 784.342 1610.21 781.346 1811.74 1014.7ZM1601.07 795.3 1593.5 765.5 1621.88 777.326Z" fill="#ED7D31"/></g></svg>