<svg width="1199" height="917" xmlns="http://www.w3.org/2000/svg" xmlns:xlink="http://www.w3.org/1999/xlink" xml:space="preserve" overflow="hidden"><g transform="translate(-1095 -267)"><path d="M1207.37 1183.19C1198.98 1005.29 1331.71 854.05 1503.82 845.382 1675.93 836.714 1822.24 973.904 1830.63 1151.81 1830.88 1157.03 1831 1162.27 1831 1167.5" stroke="#000000" stroke-width="10.3125" stroke-miterlimit="8" fill="none" fill-rule="evenodd"/><path d="M1876.89 1170.76 1719 835" stroke="#4472C4" stroke-width="10.3125" stroke-miterlimit="8" fill="none" fill-rule="evenodd"/><path d="M0 0 172.54 345.969" stroke="#4472C4" stroke-width="10.3125" stroke-miterlimit="8" fill="none" fill-rule="evenodd" transform="matrix(1 0 0 -1 1152 1180.97)"/><path d="M1322 835 1722.47 835" stroke="#4472C4" stroke-width="10.3125" stroke-miterlimit="8" fill="none" fill-rule="evenodd"/><g><g><g><path d="M2194.31 666 2228.69 666C2231.61 666 2233.84 668.234 2233.84 671.156 2233.84 674.078 2231.61 676.312 2228.69 676.312L2194.31 676.312C2191.39 676.312 2189.16 674.078 2189.16 671.156 2189.16 668.234 2191.39 666 2194.31 666Z"/><path d="M2194.31 683.187 2228.69 683.187C2231.61 683.187 2233.84 685.422 2233.84 688.344 2233.84 691.265 2231.61 693.5 2228.69 693.5L2194.31 693.5C2191.39 693.5 2189.16 691.265 2189.16 688.344 2189.16 685.422 2191.39 683.187 2194.31 683.187Z"/><path d="M2200.33 700.375C2200.84 706.219 2205.66 710.687 2211.5 710.687 2217.34 710.687 2222.16 706.219 2222.67 700.375L2200.33 700.375Z"/><path d="M2211.5 566.312C2211.5 566.312 2211.5 566.312 2211.5 566.312 2211.5 566.312 2211.5 566.312 2211.5 566.312 2187.09 566.484 2167.33 586.078 2166.81 610.484L2166.81 612.031C2166.98 617.359 2168.02 622.515 2169.91 627.5 2171.8 632.14 2174.37 636.437 2177.64 640.219 2181.77 644.687 2186.23 653.453 2188.12 657.234 2188.64 658.437 2189.84 659.125 2191.22 659.125L2231.78 659.125C2233.16 659.125 2234.36 658.437 2234.87 657.234 2236.77 653.453 2241.23 644.687 2245.36 640.219 2248.62 636.437 2251.37 632.14 2253.09 627.5 2254.98 622.515 2256.02 617.359 2256.19 612.031L2256.19 610.484C2255.67 586.078 2235.91 566.484 2211.5 566.312ZM2245.87 611.859C2245.7 615.984 2244.84 620.109 2243.47 623.89 2242.09 627.328 2240.2 630.594 2237.62 633.344 2233.67 638.156 2230.23 643.312 2227.66 648.812L2211.5 648.812 2195.52 648.812C2192.77 643.312 2189.33 638.156 2185.55 633.344 2183.14 630.594 2181.08 627.328 2179.7 623.89 2178.16 620.109 2177.47 615.984 2177.3 611.859L2177.3 610.484C2177.64 591.75 2192.94 576.625 2211.67 576.453L2211.67 576.453 2211.67 576.453C2211.67 576.453 2211.67 576.453 2211.67 576.453 2211.67 576.453 2211.67 576.453 2211.67 576.453L2211.67 576.453 2211.67 576.453C2230.41 576.625 2245.7 591.578 2246.05 610.484L2246.05 611.859Z"/></g></g></g><g><g><g><path d="M1329.39 424.25C1342.8 411.359 1343.48 390.047 1330.77 376.297 1344.34 383.344 1355.52 394.172 1362.05 401.391 1355.17 408.094 1343.48 418.062 1329.39 424.25ZM1261.84 388.844C1267.52 384.031 1273.53 379.906 1280.06 376.469 1267.52 390.219 1268.2 411.359 1281.61 424.25 1267.52 418.062 1255.66 408.094 1248.95 401.391 1252.91 396.922 1257.2 392.797 1261.84 388.844L1261.84 388.844ZM1305.5 427C1290.38 427 1278 414.625 1278 399.5 1278 384.375 1290.38 372 1305.5 372 1320.63 372 1333 384.375 1333 399.5 1333 414.625 1320.63 427 1305.5 427ZM1372.36 396.578C1362.39 384.891 1336.27 358.25 1305.5 358.25 1274.73 358.25 1248.61 384.891 1238.64 396.578 1236.06 399.672 1236.23 403.969 1238.98 406.891 1249.13 417.547 1275.08 440.75 1305.5 440.75 1335.92 440.75 1361.88 417.547 1372.19 406.891 1374.77 404.141 1374.94 399.672 1372.36 396.578Z"/><path d="M1322.69 399.5C1322.69 408.992 1314.99 416.687 1305.5 416.687 1296.01 416.687 1288.31 408.992 1288.31 399.5 1288.31 390.008 1296.01 382.312 1305.5 382.312 1314.99 382.312 1322.69 390.008 1322.69 399.5Z"/></g></g></g><path d="M1.27666-3.19164 467.204 183.179 464.651 189.563-1.27666 3.19164ZM466.778 171.902 487.205 194.882 456.565 197.435Z" fill="#FF0000" transform="matrix(1 0 0 -1 1639.5 834.382)"/><path d="M3.4375-2.61763e-06 3.43784 451.011-3.43716 451.011-3.4375 2.61763e-06ZM13.7503 446.428 0.000360892 473.928-13.7497 446.428Z" fill="#C00000" transform="matrix(1 0 0 -1 1639.5 835.428)"/><path d="M1627.53 288.641 1640.46 288.641 1651.16 320.211C1652.7 324.75 1653.89 328.587 1654.73 331.721L1655.17 331.721C1655.39 330.073 1655.88 327.331 1656.65 323.494 1657.42 319.658 1658.13 316.307 1658.78 313.443L1661.62 300.677C1662.21 298.002 1662.51 295.827 1662.51 294.152 1662.51 292.882 1662.19 291.998 1661.56 291.498 1660.92 290.998 1659.91 290.707 1658.54 290.626L1658.98 288.641 1673.17 288.641 1672.72 290.626C1671.69 290.843 1670.96 291.086 1670.51 291.356 1670.07 291.626 1669.67 292.031 1669.32 292.572 1668.96 293.112 1668.6 293.956 1668.22 295.105 1667.84 296.253 1667.37 298.124 1666.8 300.718L1657.28 343.96 1651.77 343.96 1639.93 309.188C1638.5 305.027 1637.25 300.88 1636.16 296.746L1635.64 296.746C1635.48 298.124 1635.03 300.751 1634.3 304.629 1633.57 308.506 1632.8 312.295 1631.99 315.997L1628.42 332.167C1627.86 334.734 1627.57 336.841 1627.57 338.489 1627.57 339.705 1627.88 340.563 1628.48 341.063 1629.09 341.563 1630.11 341.866 1631.54 341.975L1631.1 343.96 1616.91 343.96 1617.36 341.975C1618.39 341.812 1619.16 341.549 1619.67 341.184 1620.18 340.82 1620.62 340.313 1620.97 339.664 1621.32 339.016 1621.64 338.226 1621.94 337.294 1622.24 336.362 1622.68 334.558 1623.28 331.883L1630.17 300.677C1630.44 299.515 1630.65 298.408 1630.82 297.354 1630.98 296.3 1631.06 295.233 1631.06 294.152 1631.06 292.882 1630.74 291.998 1630.11 291.498 1629.47 290.998 1628.46 290.707 1627.09 290.626Z" fill-rule="evenodd"/><text fill="#000000" fill-opacity="0" font-family="Arial,Arial_MSFontService,sans-serif" font-size="55.3198" x="1616.91" y="337.045">𝑁</text><path d="M2115.81 559.398 2132.02 559.398 2131.58 561.383C2130.55 561.599 2129.81 561.843 2129.37 562.113 2128.92 562.383 2128.52 562.788 2128.17 563.329 2127.82 563.869 2127.46 564.713 2127.08 565.862 2126.7 567.01 2126.23 568.881 2125.66 571.475L2116.99 610.989 2126.96 610.989C2128.77 610.989 2130.19 610.813 2131.23 610.462 2132.27 610.111 2133.26 609.469 2134.19 608.537 2135.12 607.605 2136.04 606.342 2136.93 604.748 2137.82 603.154 2138.72 601.168 2139.64 598.79L2143.57 598.79 2139.48 614.717 2105.19 614.717 2105.64 612.732C2106.67 612.569 2107.44 612.306 2107.95 611.941 2108.46 611.576 2108.9 611.07 2109.25 610.421 2109.6 609.773 2109.92 608.983 2110.22 608.051 2110.52 607.118 2110.96 605.315 2111.56 602.64L2118.45 571.434C2119.04 568.732 2119.34 566.557 2119.34 564.909 2119.34 563.639 2119.02 562.755 2118.39 562.255 2117.75 561.755 2116.74 561.464 2115.37 561.383Z" fill-rule="evenodd"/><text fill="#000000" fill-opacity="0" font-family="Arial,Arial_MSFontService,sans-serif" font-size="55.3198" x="2105.19" y="607.802">𝐿</text><path d="M1635.86 835.869 1406.01 439.053 1411.96 435.608 1641.81 832.423ZM1399.39 448.188 1397.5 417.5 1423.18 434.405Z" fill="#92D050"/><path d="M1374.25 338.624 1391.03 338.624 1390.59 340.61C1389.4 340.745 1388.47 341.096 1387.81 341.663 1387.15 342.231 1386.68 343.021 1386.41 344.034 1386.14 345.047 1386.01 346.405 1386.01 348.107 1386.01 348.512 1386.05 349.728 1386.13 351.755L1387.26 381.421 1387.26 384.663 1387.67 384.663 1405.22 353.011C1406.24 351.147 1407.01 349.546 1407.53 348.208 1408.04 346.871 1408.3 345.689 1408.3 344.662 1408.3 342.393 1406.95 341.042 1404.24 340.61L1404.69 338.624 1421.27 338.624 1420.82 340.61C1420.09 340.718 1419.4 340.995 1418.73 341.44 1418.07 341.886 1417.33 342.629 1416.5 343.669 1415.68 344.71 1414.4 346.716 1412.67 349.688L1386.74 394.592 1381.35 394.592 1378.63 349.404C1378.52 347.648 1378.33 346.142 1378.04 344.885 1377.76 343.629 1377.31 342.65 1376.71 341.947 1376.1 341.245 1375.13 340.799 1373.81 340.61Z" fill-rule="evenodd"/><text fill="#000000" fill-opacity="0" font-family="Arial,Arial_MSFontService,sans-serif" font-size="55.9683" x="1373.81" y="387.596">𝑉</text><path d="M1640.43 837.573 1174.5 651.203 1177.05 644.819 1642.98 831.19ZM1174.93 662.48 1154.5 639.5 1185.14 636.947Z" fill="#00B050"/><path d="M1134.12 600.496C1132.69 600.496 1131.17 600.55 1129.58 600.659L1124.39 624.124 1129.17 624.124C1133.09 624.124 1136.19 623.597 1138.46 622.543 1140.73 621.49 1142.52 619.76 1143.85 617.356 1145.17 614.951 1145.83 612.357 1145.83 609.575 1145.83 608.413 1145.72 607.379 1145.51 606.474 1145.29 605.569 1145.01 604.819 1144.66 604.225 1144.31 603.63 1143.86 603.104 1143.32 602.644 1142.78 602.185 1142.1 601.786 1141.29 601.449 1140.48 601.111 1139.54 600.868 1138.48 600.719 1137.41 600.571 1135.96 600.496 1134.12 600.496ZM1117.87 596.93 1135.9 596.93C1138.77 596.93 1141.1 597.099 1142.91 597.437 1144.72 597.774 1146.27 598.281 1147.55 598.956 1148.84 599.632 1149.91 600.503 1150.78 601.57 1151.64 602.638 1152.29 603.84 1152.72 605.177 1153.15 606.515 1153.37 607.94 1153.37 609.453 1153.37 613.614 1152.1 617.153 1149.56 620.071 1147.02 622.989 1143.28 625.205 1138.33 626.718L1138.33 627.163C1139.63 628.136 1140.68 629.298 1141.47 630.649 1142.27 632 1142.91 633.877 1143.4 636.282L1144.33 640.983C1144.63 642.469 1144.97 643.807 1145.35 644.995 1145.72 646.184 1146.18 647.13 1146.7 647.832 1147.23 648.535 1147.82 649.062 1148.49 649.413 1149.15 649.764 1150.11 650.048 1151.38 650.264L1150.98 652.25 1139.75 652.25C1138.89 649.845 1138.12 646.981 1137.44 643.658L1135.66 635.066C1135.36 633.58 1135 632.331 1134.59 631.317 1134.17 630.304 1133.67 629.521 1133.09 628.967 1132.5 628.413 1131.83 628.048 1131.06 627.873 1130.29 627.697 1129.35 627.609 1128.24 627.609L1123.62 627.609 1120.79 640.456C1120.54 641.51 1120.37 642.348 1120.28 642.969 1120.18 643.59 1120.1 644.246 1120.04 644.935 1119.97 645.624 1119.93 646.238 1119.93 646.779 1119.93 647.616 1120.07 648.271 1120.34 648.744 1120.61 649.217 1121.02 649.562 1121.56 649.778 1122.1 649.994 1123.03 650.156 1124.35 650.264L1123.91 652.25 1107.25 652.25 1107.7 650.264C1108.72 650.102 1109.49 649.838 1110.01 649.474 1110.52 649.109 1110.95 648.602 1111.3 647.954 1111.65 647.305 1111.98 646.515 1112.27 645.583 1112.57 644.651 1113.02 642.847 1113.61 640.173L1120.5 608.967C1121.1 606.265 1121.39 604.13 1121.39 602.563 1121.39 601.239 1121.08 600.321 1120.46 599.807 1119.84 599.294 1118.83 598.997 1117.42 598.916Z" fill-rule="evenodd"/><text fill="#000000" fill-opacity="0" font-family="Arial,Arial_MSFontService,sans-serif" font-size="55.3198" x="1107.25" y="645.335">𝑅</text></g></svg>