<svg width="605" height="275" xmlns="http://www.w3.org/2000/svg" xmlns:xlink="http://www.w3.org/1999/xlink" xml:space="preserve" overflow="hidden"><g transform="translate(-1227 -914)"><path d="M1228 1151 1826.55 1154.4" stroke="#000000" stroke-width="10.3125" stroke-miterlimit="8" fill="none" fill-rule="evenodd"/><path d="M1613.46 1153.63 1300.41 1011.08 1302.31 1006.91 1615.36 1149.46ZM1299.83 1023.41 1280.5 999.5 1311.23 998.382Z" fill="#ED7D31"/><path d="M1609.98 1154 1280.88 1059.05 1282.15 1054.65 1611.25 1149.59ZM1282.11 1071.33 1259.5 1050.5 1289.73 1044.91Z" fill="#ED7D31"/><path d="M1615.65 1155.12 1330.04 957.427 1332.65 953.658 1618.26 1151.35ZM1327.29 969.457 1312.5 942.5 1342.94 946.845Z" fill="#ED7D31"/><path d="M1612.75 1150.69 1565.33 1003.02 1569.69 1001.62 1617.11 1149.29ZM1555.82 1010.89 1560.5 980.5 1582 1002.48Z" fill="#7030A0" fill-opacity="0.501961"/><path d="M2.19742-0.650463 46.2581 148.197 41.8633 149.498-2.19742 0.650463ZM55.9443 140.55 50.5654 170.822 29.5753 148.355Z" fill="#7030A0" fill-opacity="0.501961" transform="matrix(1 0 0 -1 1614.5 1150.32)"/><path d="M1.19396-1.95606 132.393 78.1265 130.005 82.0386-1.19396 1.95606ZM134.451 65.9582 150.76 92.0221 120.123 89.431Z" fill="#7030A0" fill-opacity="0.501961" transform="matrix(1 0 0 -1 1618.5 1150.52)"/><path d="M1615.65 1155.21 1500.97 1051.57 1504.04 1048.16 1618.72 1151.8ZM1496.68 1063.14 1485.5 1034.5 1515.12 1042.74Z" fill="#7030A0" fill-opacity="0.501961"/><path d="M1614.35 1155.09 1472.73 1131.52 1473.48 1127 1615.1 1150.57ZM1475.37 1143.58 1450.5 1125.5 1479.88 1116.45Z" fill="#7030A0" fill-opacity="0.501961"/><path d="M0.360313-2.26316 154.703 22.3093 153.982 26.8356-0.360313 2.26316ZM151.978 10.2729 176.974 28.1756 147.654 37.4308Z" fill="#7030A0" fill-opacity="0.501961" transform="matrix(1 0 0 -1 1616.5 1152.68)"/><path d="M3.95377-3.30977 168.387 193.117 160.479 199.737-3.95377 3.30977ZM172.984 182.544 180.982 216.196 149.262 202.403Z" fill="#4472C4" transform="matrix(-1 0 0 1 1794.98 942)"/></g></svg>