<svg width="605" height="462" xmlns="http://www.w3.org/2000/svg" xmlns:xlink="http://www.w3.org/1999/xlink" xml:space="preserve" overflow="hidden"><g transform="translate(-1227 -914)"><path d="M1228 1151 1826.55 1154.4" stroke="#000000" stroke-width="10.3125" stroke-miterlimit="8" fill="none" fill-rule="evenodd"/><path d="M2.1768-0.716427 57.3571 166.944 53.0035 168.377-2.1768 0.716427ZM66.8082 159.008 62.3445 189.428 40.6866 167.605Z" fill="#00B050" transform="matrix(-1 0 0 1 1614.84 1158.5)"/><path d="M1.77691-1.44718 116.681 139.636 113.127 142.531-1.77691 1.44718ZM122.671 128.847 129.376 158.853 101.348 146.213Z" fill="#00B050" transform="matrix(-1 0 0 1 1614.88 1158.5)"/><path d="M1.27973-1.90106 166.645 109.418 164.086 113.22-1.27973 1.90106ZM169.242 97.3528 184.376 124.116 153.885 120.166Z" fill="#00B050" transform="matrix(-1 0 0 1 1614.88 1158.5)"/><path d="M1613.46 1153.63 1300.41 1011.08 1302.31 1006.91 1615.36 1149.46ZM1299.83 1023.41 1280.5 999.5 1311.23 998.382Z" fill="#ED7D31"/><path d="M1609.98 1154 1280.88 1059.05 1282.15 1054.65 1611.25 1149.59ZM1282.11 1071.33 1259.5 1050.5 1289.73 1044.91Z" fill="#ED7D31"/><path d="M1615.65 1155.12 1330.04 957.427 1332.65 953.658 1618.26 1151.35ZM1327.29 969.457 1312.5 942.5 1342.94 946.845Z" fill="#ED7D31"/><path d="M3.95377-3.30977 168.387 193.117 160.479 199.737-3.95377 3.30977ZM172.984 182.544 180.982 216.196 149.262 202.403Z" fill="#4472C4" transform="matrix(-1 0 0 1 1794.98 942)"/></g></svg>