<svg viewBox="-120 -25 660 660" xmlns="http://www.w3.org/2000/svg">
    <rect x="0" y="0" width="512" height="512" style="stroke-width: 6px; stroke: rgb(81, 81, 81); fill: rgb(227, 227, 227);"></rect>
    <ellipse style="stroke: #000; paint-order: stroke; stroke-width: 0px; fill: #06c;" cx="0" cy="512" rx="20"></ellipse>
    <path style="stroke: #06c; stroke-width: 12px;" d="M 0 512 L 171 512"></path>
    <ellipse style="paint-order: stroke; stroke: rgb(0, 102, 204); stroke-width: 20px; fill: rgb(227, 227, 227);" cx="171" cy="512" rx="10"></ellipse>
    <path style="stroke: rgb(0, 102, 204); stroke-width: 12px; stroke-dasharray: 22;" d="M 171 482 L 171 256"></path>
    <ellipse style="stroke: #000; paint-order: stroke; stroke-width: 0px; fill: #06c;" cx="171" cy="256" rx="20" ry="20"></ellipse>
    <path style="stroke: #06c; stroke-width: 12px;" d="M 171 256 L 341 256"></path>
    <ellipse style="paint-order: stroke; stroke: rgb(0, 102, 204); stroke-width: 20px; fill: rgb(227, 227, 227);" cx="341" cy="256" rx="10"></ellipse>
    <path style="stroke: rgb(0, 102, 204); stroke-width: 12px; stroke-dasharray: 22;" d="M 341 226 L 341 0"></path>
    <ellipse style="stroke: #000; paint-order: stroke; stroke-width: 0px; fill: #06c;" cx="341" cy="0" rx="20" ry="20"></ellipse>
    <path style="stroke: #06c; stroke-width: 12px;" d="M 341 0 L 512 0"></path>
    <ellipse style="paint-order: stroke; stroke: rgb(0, 102, 204); stroke-width: 0px; fill: rgb(0, 102, 204);" cx="512" cy="0" rx="20"></ellipse>
    <text style="font-family: sans-serif; font-size: 40px; text-anchor: middle; white-space: pre;" x="256" y="620">input progress</text>
    <text style="font-family: sans-serif; font-size: 40px; white-space: pre;" x="-7" y="580">0</text>
    <text style="font-family: sans-serif; font-size: 40px; white-space: pre;" x="500.144" y="580">1</text>
    <text style="font-family: sans-serif; font-size: 40px; white-space: pre;" x="-55" y="522">0</text>
    <text style="font-family: sans-serif; font-size: 40px; white-space: pre;" x="-55" y="15">1</text>
    <text style="font-family: sans-serif; font-size: 40px; text-anchor: middle; white-space: pre;" x="-95" y="256" transform="matrix(0, -1, 1, 0, -337.415588, 147.415619)">output progress</text>
</svg>