<?xml version="1.0" encoding="UTF-8" standalone="no"?>
<svg
   width="47.625mm"
   height="21.166668mm"
   viewBox="0 0 47.625 21.166668"
   version="1.1"
   id="svg1"
   xmlns="http://www.w3.org/2000/svg"
   xmlns:svg="http://www.w3.org/2000/svg">
  <defs
     id="defs1" />
  <g
     id="layer1"
     transform="translate(-15.875,-44.979167)">
    <path
       style="fill:none;stroke:#000000;stroke-width:0.5;stroke-linecap:butt;stroke-linejoin:miter;stroke-dasharray:none;stroke-opacity:1"
       d="m 18.520833,50.270835 v 5.291666"
       id="path1-8" />
    <path
       style="fill:none;stroke:#000000;stroke-width:0.5;stroke-linecap:butt;stroke-linejoin:miter;stroke-dasharray:none;stroke-opacity:1"
       d="m 19.843749,50.270835 v 5.291666"
       id="path2-9" />
    <path
       style="fill:none;stroke:#000000;stroke-width:0.5;stroke-linecap:butt;stroke-linejoin:miter;stroke-dasharray:none;stroke-opacity:1"
       d="m 59.281248,50.270835 v 5.291666"
       id="path1-8-9" />
    <path
       style="fill:none;stroke:#000000;stroke-width:0.5;stroke-linecap:butt;stroke-linejoin:miter;stroke-dasharray:none;stroke-opacity:1"
       d="m 60.604164,50.270835 v 5.291666"
       id="path2-9-8" />
    <path
       style="fill:none;stroke:#000000;stroke-width:0.499999;stroke-linecap:butt;stroke-linejoin:miter;stroke-dasharray:none;stroke-opacity:1"
       d="M 18.520834,52.916668 H 29.104167"
       id="path3-1" />
    <rect
       style="fill:#ffffff;fill-opacity:1;stroke:#000000;stroke-width:0.5;stroke-linecap:round;stroke-linejoin:miter;stroke-dasharray:none;stroke-opacity:1;paint-order:normal"
       id="rect3-4"
       width="4.791666"
       height="4.791667"
       x="37.306248"
       y="58.472919"
       ry="1.1979167" />
    <text
       xml:space="preserve"
       style="font-style:normal;font-weight:normal;font-size:2.82222px;line-height:1.25;font-family:sans-serif;fill:#000000;fill-opacity:1;stroke:none;stroke-width:0.264583"
       x="39.264637"
       y="61.653336"
       id="text3-0"><tspan
         id="tspan3-83"
         style="font-size:2.82222px;font-weight:bold;stroke-width:0.264583"
         x="39.264637"
         y="61.653336">,</tspan></text>
    <rect
       style="fill:#ffffff;fill-opacity:1;stroke:#000000;stroke-width:0.5;stroke-linecap:round;stroke-linejoin:miter;stroke-dasharray:none;stroke-opacity:1;paint-order:normal"
       id="rect4-1"
       width="20.666666"
       height="4.791667"
       x="29.354166"
       y="50.520836" />
    <text
       xml:space="preserve"
       style="font-style:normal;font-weight:normal;font-size:2.82222px;line-height:1.25;font-family:sans-serif;fill:#000000;fill-opacity:1;stroke:none;stroke-width:0.264583"
       x="31.223663"
       y="53.900444"
       id="text3-1-16"><tspan
         id="tspan3-6-6"
         style="font-style:normal;font-variant:normal;font-weight:normal;font-stretch:normal;font-size:2.82222px;font-family:sans-serif;-inkscape-font-specification:sans-serif;font-weight:bold;stroke-width:0.264583"
         x="31.223663"
         y="53.900444">media query</tspan></text>
    <path
       style="fill:none;stroke:#000000;stroke-width:0.5;stroke-linecap:butt;stroke-linejoin:miter;stroke-dasharray:none;stroke-opacity:1"
       d="m 50.27083,52.916669 c 2e-6,-10e-7 2.645834,-10e-7 2.645833,2.645833 l -10e-7,2.645834 c -1e-6,2.645833 -2.645831,2.645833 -2.645833,2.645833 h -7.937497"
       id="path12" />
    <path
       style="fill:none;stroke:#000000;stroke-width:0.5;stroke-linecap:butt;stroke-linejoin:miter;stroke-dasharray:none;stroke-opacity:1"
       d="m 29.104166,52.916669 c -2e-6,-10e-7 -2.645835,-10e-7 -2.645833,2.645833 1e-6,1.322916 1e-6,1.322917 0,2.645834 -2e-6,2.645833 2.645831,2.645833 2.645833,2.645833 h 7.937497"
       id="path12-5" />
    <path
       style="fill:none;stroke:#000000;stroke-width:0.5;stroke-linecap:butt;stroke-linejoin:miter;stroke-dasharray:none;stroke-opacity:1"
       d="m 22.545616,52.916669 c 0,0 2.5898,-10e-7 2.5898,-2.645834 0,-2.645833 2.645834,-2.645833 2.645834,-2.645833 h 23.812497 c 0,0 2.645835,0 2.645833,2.645833 -2e-6,2.645833 2.645833,2.645834 2.645833,2.645834"
       id="path13" />
    <path
       style="fill:none;stroke:#000000;stroke-width:0.5;stroke-linecap:butt;stroke-linejoin:miter;stroke-dasharray:none;stroke-opacity:1"
       d="M 50.27083,52.916669 H 60.854163"
       id="path14" />
    <rect
       style="fill:none;fill-opacity:1;stroke:#000000;stroke-width:0;stroke-linecap:round;stroke-linejoin:miter;stroke-dasharray:none;stroke-opacity:1;paint-order:normal"
       id="rect14"
       width="47.625"
       height="21.166666"
       x="15.875"
       y="44.979168" />
  </g>
</svg>
