<svg width="3078" height="2381" xmlns="http://www.w3.org/2000/svg" xmlns:xlink="http://www.w3.org/1999/xlink" xml:space="preserve" overflow="hidden"><g transform="translate(-240 -353)"><rect x="1278.5" y="946.5" width="852" height="133" stroke="#000000" stroke-width="3.4375" stroke-linejoin="round" stroke-miterlimit="10" fill="#C5E0B4"/><text font-family="DejaVu Sans Light,DejaVu Sans Light_MSFontService,sans-serif" font-weight="200" font-size="83" transform="matrix(1 0 0 1 1344.02 1042)">DRAG_DETECTED</text><path d="M1705.15 1079 1705.15 1507.05 1702.85 1507.05 1702.85 1079ZM1717.75 1502.46 1704 1529.96 1690.25 1502.46Z"/><rect x="2297.5" y="1530.5" width="797" height="334" stroke="#000000" stroke-width="3.4375" stroke-linejoin="round" stroke-miterlimit="10" fill="#BDD7EE"/><text font-family="DejaVu Sans Light,DejaVu Sans Light_MSFontService,sans-serif" font-style="oblique" font-weight="200" font-size="83" transform="matrix(1 0 0 1 2441.88 1626)">DRAG_OVER</text><text font-family="DejaVu Sans Light,DejaVu Sans Light_MSFontService,sans-serif" font-style="oblique" font-weight="200" font-size="83" transform="matrix(1 0 0 1 2361.81 1725)">DRAG_ENTERED</text><text font-family="DejaVu Sans Light,DejaVu Sans Light_MSFontService,sans-serif" font-style="oblique" font-weight="200" font-size="83" transform="matrix(1 0 0 1 2349.2 1824)">DRAG_EXITEDED</text><rect x="2297.5" y="2316.5" width="797" height="133" stroke="#000000" stroke-width="3.4375" stroke-linejoin="round" stroke-miterlimit="10" fill="#BDD7EE"/><text font-family="DejaVu Sans Light,DejaVu Sans Light_MSFontService,sans-serif" font-style="oblique" font-weight="200" font-size="83" transform="matrix(1 0 0 1 2356.08 2411)">DRAG_DROPPED</text><path d="M1.14583-3.46978e-06 1.14612 96.2616-1.14554 96.2616-1.14583 3.46978e-06ZM13.7503 91.6782 0.000360892 119.178-13.7497 91.6783Z" transform="matrix(-1 0 0 1 2696 2449)"/><path d="M2697.15 1864 2697.15 2293.14 2694.85 2293.14 2694.85 1864ZM2709.75 2288.55 2696 2316.05 2682.25 2288.55Z"/><rect x="2297.5" y="2568.5" width="797" height="133" stroke="#000000" stroke-width="3.4375" stroke-linejoin="round" stroke-miterlimit="10" fill="#BDD7EE"/><text font-family="DejaVu Sans Light,DejaVu Sans Light_MSFontService,sans-serif" font-weight="200" font-size="83" transform="matrix(1 0 0 1 2435.43 2664)">DRAG_DONE</text><rect x="1136.5" y="1530.5" width="1136" height="334" stroke="#000000" stroke-width="3.4375" stroke-linejoin="round" stroke-miterlimit="10" fill="#F8CBAD"/><text font-family="DejaVu Sans Light,DejaVu Sans Light_MSFontService,sans-serif" font-style="oblique" font-weight="200" font-size="83" transform="matrix(1 0 0 1 1279.72 1626)">MOUSE_DRAG_OVER</text><text font-family="DejaVu Sans Light,DejaVu Sans Light_MSFontService,sans-serif" font-style="oblique" font-weight="200" font-size="83" transform="matrix(1 0 0 1 1199.65 1725)">MOUSE_DRAG_ENTERED</text><text font-family="DejaVu Sans Light,DejaVu Sans Light_MSFontService,sans-serif" font-style="oblique" font-weight="200" font-size="83" transform="matrix(1 0 0 1 1187.04 1824)">MOUSE_DRAG_EXITEDED</text><rect x="1136.5" y="2316.5" width="1136" height="133" stroke="#000000" stroke-width="3.4375" stroke-linejoin="round" stroke-miterlimit="10" fill="#F8CBAD"/><text font-family="DejaVu Sans Light,DejaVu Sans Light_MSFontService,sans-serif" font-style="oblique" font-weight="200" font-size="83" transform="matrix(1 0 0 1 1178.45 2411)">MOUSE_DRAG_RELEASED</text><path d="M1.14583-6.93957e-06 1.14642 96.2615-1.14525 96.2616-1.14583 6.93957e-06ZM13.7506 91.6781 0.000721785 119.178-13.7494 91.6783Z" transform="matrix(-1 0 0 1 1704 2449)"/><path d="M1705.15 2197 1705.15 2293.26 1702.86 2293.26 1702.85 2197ZM1717.75 2288.68 1704 2316.18 1690.25 2288.68Z"/><rect x="1136.5" y="2568.5" width="1136" height="133" stroke="#000000" stroke-width="3.4375" stroke-linejoin="round" stroke-miterlimit="10" fill="#F8CBAD"/><text font-family="DejaVu Sans Light,DejaVu Sans Light_MSFontService,sans-serif" font-weight="200" font-size="83" transform="matrix(1 0 0 1 1273.27 2664)">MOUSE_DRAG_DONE</text><rect x="241.5" y="1532.5" width="870" height="333" stroke="#000000" stroke-width="3.4375" stroke-linejoin="round" stroke-miterlimit="10" fill="#C5E0B4"/><text font-family="DejaVu Sans Light,DejaVu Sans Light_MSFontService,sans-serif" font-style="oblique" font-weight="200" font-size="83" transform="matrix(1 0 0 1 297.23 1627)">MOUSE_DRAGGED</text><text font-family="DejaVu Sans Light,DejaVu Sans Light_MSFontService,sans-serif" font-style="oblique" font-weight="200" font-size="83" transform="matrix(1 0 0 1 310.866 1726)">MOUSE_ENTERED</text><text font-family="DejaVu Sans Light,DejaVu Sans Light_MSFontService,sans-serif" font-style="oblique" font-weight="200" font-size="83" transform="matrix(1 0 0 1 298.261 1825)">MOUSE_</text><text font-family="DejaVu Sans Light,DejaVu Sans Light_MSFontService,sans-serif" font-style="oblique" font-weight="200" font-size="83" transform="matrix(1 0 0 1 639.72 1825)">EXITEDED</text><rect x="245.5" y="2316.5" width="870" height="133" stroke="#000000" stroke-width="3.4375" stroke-linejoin="round" stroke-miterlimit="10" fill="#C5E0B4"/><text font-family="DejaVu Sans Light,DejaVu Sans Light_MSFontService,sans-serif" font-style="oblique" font-weight="200" font-size="83" transform="matrix(1 0 0 1 293.122 2411)">MOUSE_</text><text font-family="DejaVu Sans Light,DejaVu Sans Light_MSFontService,sans-serif" font-style="oblique" font-weight="200" font-size="83" transform="matrix(1 0 0 1 634.58 2411)">RELEASED</text><path d="M677.146 1864.99 680.414 2292.96 678.122 2292.98 674.854 1865.01ZM692.982 2288.28 679.443 2315.88 665.483 2288.49Z"/><rect x="1269.5" y="362.5" width="870" height="133" stroke="#000000" stroke-width="3.4375" stroke-linejoin="round" stroke-miterlimit="10" fill="#C5E0B4"/><text font-family="DejaVu Sans Light,DejaVu Sans Light_MSFontService,sans-serif" font-weight="200" font-size="83" transform="matrix(1 0 0 1 1325.12 457)">MOUSE_DRAGGED</text><path d="M1705.15 495 1705.15 923.465 1702.85 923.465 1702.85 495ZM1717.75 918.882 1704 946.382 1690.25 918.882Z"/><path d="M1074.5 721C1074.5 661.629 1356.56 613.5 1704.5 613.5 2052.44 613.5 2334.5 661.629 2334.5 721 2334.5 780.371 2052.44 828.5 1704.5 828.5 1356.56 828.5 1074.5 780.371 1074.5 721Z" stroke="#000000" stroke-width="4.58333" stroke-miterlimit="8" fill="#FFFFFF" fill-rule="evenodd"/><text font-family="DejaVu Sans Light,DejaVu Sans Light_MSFontService,sans-serif" font-weight="200" font-size="83" transform="matrix(1 0 0 1 1298.75 750)">Exit hysteresis area</text><path d="M1278.5 1305.5C1278.5 1246.41 1469.23 1198.5 1704.5 1198.5 1939.77 1198.5 2130.5 1246.41 2130.5 1305.5 2130.5 1364.59 1939.77 1412.5 1704.5 1412.5 1469.23 1412.5 1278.5 1364.59 1278.5 1305.5Z" stroke="#000000" stroke-width="4.58333" stroke-miterlimit="8" fill="#FFFFFF" fill-rule="evenodd"/><text font-family="DejaVu Sans Light,DejaVu Sans Light_MSFontService,sans-serif" font-weight="200" font-size="83" transform="matrix(1 0 0 1 1439.56 1334)">startFullDrag</text><path d="M2130 1011.85 2696.62 1011.85 2696.62 1507.69 2694.33 1507.69 2694.33 1013 2695.48 1014.15 2130 1014.15ZM2709.23 1503.11 2695.48 1530.61 2681.73 1503.11Z"/><path d="M2142.5 1305.5C2142.5 1246.41 2405.08 1198.5 2729 1198.5 3052.91 1198.5 3315.5 1246.41 3315.5 1305.5 3315.5 1364.59 3052.91 1412.5 2729 1412.5 2405.08 1412.5 2142.5 1364.59 2142.5 1305.5Z" stroke="#000000" stroke-width="4.58333" stroke-miterlimit="8" fill="#FFFFFF" fill-rule="evenodd"/><text font-family="DejaVu Sans Light,DejaVu Sans Light_MSFontService,sans-serif" font-weight="200" font-size="83" transform="matrix(1 0 0 1 2354.95 1334)">startDragAndDrop</text><path d="M0-1.14583 603.077-1.14583 603.077 495.86 600.785 495.86 600.785 0 601.931 1.14583 0 1.14583ZM615.681 491.277 601.931 518.777 588.181 491.277Z" transform="matrix(-1 1.22465e-16 1.22465e-16 1 1277.93 1013)"/><rect x="1136.5" y="1863.5" width="1136" height="334" stroke="#000000" stroke-width="3.4375" stroke-linejoin="round" stroke-miterlimit="10" fill="#C5E0B4"/><text font-family="DejaVu Sans Light,DejaVu Sans Light_MSFontService,sans-serif" font-style="oblique" font-weight="200" font-size="83" transform="matrix(1 0 0 1 1325.12 1959)">MOUSE_DRAGGED</text><text font-family="DejaVu Sans Light,DejaVu Sans Light_MSFontService,sans-serif" font-style="oblique" font-weight="200" font-size="83" transform="matrix(1 0 0 1 1338.77 2058)">MOUSE_ENTERED</text><text font-family="DejaVu Sans Light,DejaVu Sans Light_MSFontService,sans-serif" font-style="oblique" font-weight="200" font-size="83" transform="matrix(1 0 0 1 1326.17 2157)">MOUSE_</text><text font-family="DejaVu Sans Light,DejaVu Sans Light_MSFontService,sans-serif" font-style="oblique" font-weight="200" font-size="83" transform="matrix(1 0 0 1 1667.63 2157)">EXITEDED</text></g></svg>